<svg id="eqBm3gGY60C1" xmlns="http://www.w3.org/2000/svg" xmlns:xlink="http://www.w3.org/1999/xlink" viewBox="0 0 256 256" shape-rendering="geometricPrecision" text-rendering="geometricPrecision" project-id="96238f6c516243f28359b0bdbce2cd3a" export-id="03b58c9ab50d4860bfce7ce7d190305e" cached="false" width="256" height="256"><rect width="256" height="256" rx="60" fill="#1572b6" stroke-width="0"/><g transform="matrix(.46 0 0 0.46 13.149679 14.406269)"><path d="M69.78,448.58L29.83,1.335h439.753l-40.098,446.95-180.073,49.938L69.781,448.578l-.001.002Z" clip-rule="evenodd" fill="#1572b6" fill-rule="evenodd" stroke-linejoin="round" stroke-miterlimit="2"/><path d="M249.706,460.182l145.41-40.097L429.485,37.908h-179.779v422.274Z" clip-rule="evenodd" fill="#33a9dc" fill-rule="evenodd" stroke-linejoin="round" stroke-miterlimit="2"/><path d="M249.706,199.915h72.852l4.994-56.108h-77.846v-54.932h138.066l-1.322,14.688-13.513,151.284h-123.23v-54.932h-.001Z" clip-rule="evenodd" fill="#fff" fill-rule="evenodd" stroke-linejoin="round" stroke-miterlimit="2"/><path d="M250,342.386l-61.395-16.45-3.966-43.77h-55.373l7.785,86.218l112.655,31.138h.294v-57.136Z" clip-rule="evenodd" fill="#ebebeb" fill-rule="evenodd" stroke-linejoin="round" stroke-miterlimit="2"/><path d="M317.858,252.497l-6.61,73.439-61.395,16.45v57.136l112.802-31.138.882-9.4l9.547-106.487h-55.226Z" clip-rule="evenodd" fill="#fff" fill-rule="evenodd" stroke-linejoin="round" stroke-miterlimit="2"/><path d="M250,88.875v54.932h-133.218l-1.175-12.338-2.497-27.906-1.322-14.688h138.212Zm-.294,111.04v54.785h-60.513l-1.176-12.19-2.496-27.908-1.322-14.687h65.507Z" clip-rule="evenodd" fill="#ebebeb" stroke-linejoin="round" stroke-miterlimit="2"/></g></svg>
